<svg width="5" height="8" viewBox="0 0 5 8" fill="none" xmlns="http://www.w3.org/2000/svg">
<path d="M0.480163 4.48006C0.386368 4.38639 0.333613 4.25929 0.333496 4.12673V3.8734C0.335032 3.74112 0.387573 3.61454 0.480163 3.52006L3.90683 0.100064C3.96942 0.0369601 4.05462 0.00146484 4.1435 0.00146484C4.23238 0.00146484 4.31757 0.0369601 4.38016 0.100064L4.8535 0.573398C4.91621 0.63484 4.95154 0.718938 4.95154 0.806731C4.95154 0.894524 4.91621 0.978622 4.8535 1.04006L1.88683 4.00006L4.8535 6.96006C4.9166 7.02265 4.9521 7.10785 4.9521 7.19673C4.9521 7.28561 4.9166 7.37081 4.8535 7.4334L4.38016 7.90006C4.31757 7.96317 4.23238 7.99866 4.1435 7.99866C4.05462 7.99866 3.96942 7.96317 3.90683 7.90006L0.480163 4.48006Z" fill="#BCBCBC"/>
</svg>
