<svg width="14" height="16" viewBox="0 0 14 16" fill="none" xmlns="http://www.w3.org/2000/svg">
<path d="M0.905853 1.91782L9.28585 0.721151C9.33315 0.714367 9.38135 0.717828 9.42718 0.731301C9.47302 0.744774 9.51543 0.767944 9.55153 0.79924C9.58763 0.830535 9.61658 0.869226 9.63642 0.91269C9.65626 0.956153 9.66653 1.00337 9.66652 1.05115V14.9485C9.66651 14.9962 9.65626 15.0434 9.63646 15.0868C9.61666 15.1302 9.58777 15.1688 9.55175 15.2001C9.51572 15.2314 9.4734 15.2546 9.42765 15.2681C9.38189 15.2816 9.33376 15.2852 9.28652 15.2785L0.905186 14.0818C0.746265 14.0592 0.600848 13.98 0.495645 13.8587C0.390443 13.7375 0.332521 13.5823 0.33252 13.4218V2.57782C0.332521 2.41729 0.390443 2.26216 0.495645 2.14091C0.600848 2.01967 0.746265 1.94045 0.905186 1.91782H0.905853ZM10.3332 1.99982H12.9999C13.1767 1.99982 13.3462 2.07006 13.4713 2.19508C13.5963 2.3201 13.6665 2.48967 13.6665 2.66648V13.3332C13.6665 13.51 13.5963 13.6795 13.4713 13.8046C13.3462 13.9296 13.1767 13.9998 12.9999 13.9998H10.3332V1.99982ZM5.79985 7.99982L7.66652 5.33315H6.06652L4.99985 6.85715L3.93319 5.33315H2.33319L4.19985 7.99982L2.33319 10.6665H3.93319L4.99985 9.14248L6.06652 10.6665H7.66652L5.79985 7.99982Z" fill="#666666"/>
</svg>
