<svg width="5" height="8" viewBox="0 0 5 8" fill="none" xmlns="http://www.w3.org/2000/svg">
<path d="M4.51984 4.48006C4.61363 4.38639 4.66639 4.25929 4.6665 4.12673V3.8734C4.66497 3.74112 4.61243 3.61454 4.51984 3.52006L1.09317 0.100064C1.03058 0.0369601 0.945383 0.00146484 0.856504 0.00146484C0.767625 0.00146484 0.682426 0.0369601 0.619837 0.100064L0.146504 0.573398C0.0837943 0.63484 0.0484561 0.718938 0.0484561 0.806731C0.0484561 0.894524 0.0837943 0.978622 0.146504 1.04006L3.11317 4.00006L0.146504 6.96006C0.0833994 7.02265 0.0479042 7.10785 0.0479042 7.19673C0.0479042 7.28561 0.0833994 7.37081 0.146504 7.4334L0.619837 7.90006C0.682426 7.96317 0.767625 7.99866 0.856504 7.99866C0.945383 7.99866 1.03058 7.96317 1.09317 7.90006L4.51984 4.48006Z" fill="#BCBCBC"/>
</svg>
